<?xml version="1.0" encoding="iso-8859-1"?>
<!-- Generator: Adobe Illustrator 16.0.0, SVG Export Plug-In . SVG Version: 6.00 Build 0)  -->
<!DOCTYPE svg PUBLIC "-//W3C//DTD SVG 1.1//EN" "http://www.w3.org/Graphics/SVG/1.1/DTD/svg11.dtd">
<svg version="1.1" id="Capa_1" xmlns="http://www.w3.org/2000/svg" xmlns:xlink="http://www.w3.org/1999/xlink" x="0px" y="0px"
	 width="186.647px" height="186.646px" viewBox="0 0 186.647 186.646" style="enable-background:new 0 0 186.647 186.646;"
	 xml:space="preserve">
<g>
	<path d="M152.72,151.135c-0.224-2.147-2.437-2.929-3.891-2.224c-0.854-1.081-2.548-1.594-3.925-0.435
		c-12.841,10.822-34.421,11.871-41.664-6.014c-4.044-9.983-2.75-23.43-2.859-34.008c-0.091-8.819,0.305-17.724,0.069-26.579
		c12.783-0.631,25.525-1.441,38.018-1.494c0.972-0.004,1.674-0.418,2.124-1.012c0.941-0.049,1.803-0.629,2.079-1.915
		c1.095-5.114,1.312-10.287,1.357-15.505c0.034-4.198,0.648-9.708-1.262-13.534c-0.453-0.907-1.61-1.207-2.537-0.907
		c-0.253-0.413-0.643-0.754-1.193-0.916c-6.375-1.869-13.805-1.088-20.421-1.241c-5.485-0.127-10.981-0.373-16.473-0.394
		c2.222-13.092-1.493-26.317,0.523-39.497c0.147-0.965-0.229-1.746-0.814-2.251c0.391-1.412-0.47-3.311-2.226-3.206
		c-7.855,0.47-15.557,1.575-23.418,0.379c-1.479-0.225-2.491,0.922-2.578,2.056c-0.948,0.106-1.817,0.66-2.033,1.749
		c-1.858,9.374-4.038,18.573-8.729,26.987C57.037,41.637,47.31,46.082,36.158,48.738c-2.007,0.478-2.219,3.053-1.039,4.26
		c-0.003,0.009-0.01,0.017-0.013,0.027c-2.092,6.646-0.103,13.872-1.286,20.65c-0.174,0.998,0.234,1.793,0.861,2.282
		c-0.382,1.201,0.058,2.72,1.519,3.037c7.772,1.689,15.672,2.651,23.64,3.163c-2.253,14.265-3.217,28.807-3.243,43.215
		c-0.027,15.113,1.565,32.257,11.593,44.377c19.559,23.639,56.039,19.638,79.974,5.318c0.39-0.233,0.687-0.515,0.901-0.823
		c0.285-0.25,0.497-0.596,0.582-1.048C151.007,165.964,153.498,158.574,152.72,151.135z"/>
</g>
<g>
</g>
<g>
</g>
<g>
</g>
<g>
</g>
<g>
</g>
<g>
</g>
<g>
</g>
<g>
</g>
<g>
</g>
<g>
</g>
<g>
</g>
<g>
</g>
<g>
</g>
<g>
</g>
<g>
</g>
</svg>
