<?xml version="1.0" encoding="iso-8859-1"?>
<!-- Generator: Adobe Illustrator 17.1.0, SVG Export Plug-In . SVG Version: 6.00 Build 0)  -->
<!DOCTYPE svg PUBLIC "-//W3C//DTD SVG 1.1//EN" "http://www.w3.org/Graphics/SVG/1.1/DTD/svg11.dtd">
<svg version="1.1" id="Capa_1" xmlns="http://www.w3.org/2000/svg" xmlns:xlink="http://www.w3.org/1999/xlink" x="0px" y="0px"
	 viewBox="0 0 242.667 242.667" style="enable-background:new 0 0 242.667 242.667;" xml:space="preserve">
<path d="M0,0v242.667h242.667V0H0z M211.542,58.694c0,1.1-0.892,1.992-1.992,1.992h-5.575c-2.033,0-3.863,1.23-4.63,3.113
	l-50.868,124.809l-25.62-57.511l-27.412,57.511L42.983,63.75c-0.78-1.856-2.597-3.063-4.61-3.063h-5.256
	c-1.1,0-1.992-0.892-1.992-1.992v-4.637h45.328l-0.127,4.691c-0.029,1.079-0.912,1.939-1.992,1.939h-7.586
	c-2.823,0-4.758,2.845-3.72,5.47l36.832,93.175l18.628-40.373L94.948,63.726c-0.786-1.843-2.596-3.04-4.6-3.04h-3.662
	c-1.1,0-1.992-0.892-1.992-1.992v-4.637h34.041v4.637c0,1.1-0.892,1.992-1.992,1.992c-2.873,0-4.809,2.938-3.676,5.578l13.91,32.405
	l14.203-32.375c1.159-2.643-0.777-5.607-3.663-5.607h-5.322c-1.1,0-1.992-0.892-1.992-1.992v-4.637h35.653v4.637
	c0,1.1-0.892,1.992-1.992,1.992h-5.934c-1.941,0-3.707,1.124-4.529,2.882l-21.943,46.925l20.488,48.145l35.85-92.526
	c0.999-2.618-0.935-5.425-3.737-5.425h-8.863c-1.1,0-1.992-0.892-1.992-1.992v-4.637h38.341V58.694z"/>
<g>
</g>
<g>
</g>
<g>
</g>
<g>
</g>
<g>
</g>
<g>
</g>
<g>
</g>
<g>
</g>
<g>
</g>
<g>
</g>
<g>
</g>
<g>
</g>
<g>
</g>
<g>
</g>
<g>
</g>
</svg>
